{
  "accessors": [
    {
      "bufferView": 1,
      "componentType": 5123,
      "type": "SCALAR",
      "count": 156
    },
    {
      "bufferView": 2,
      "componentType": 5126,
      "type": "VEC3",
      "count": 104,
      "min": [0, 15, 2],
      "max": [6, 16, 3]
    },
    {
      "bufferView": 2,
      "componentType": 5126,
      "type": "VEC3",
      "byteOffset": 12,
      "count": 104
    },
    {
      "bufferView": 2,
      "componentType": 5126,
      "type": "VEC2",
      "byteOffset": 24,
      "count": 104
    },
    {
      "bufferView": 3,
      "componentType": 5123,
      "type": "SCALAR",
      "count": 468
    },
    {
      "bufferView": 4,
      "componentType": 5126,
      "type": "VEC3",
      "count": 312,
      "min": [0, 0, 1],
      "max": [6, 2, 4]
    },
    {
      "bufferView": 4,
      "componentType": 5126,
      "type": "VEC3",
      "byteOffset": 12,
      "count": 312
    },
    {
      "bufferView": 4,
      "componentType": 5126,
      "type": "VEC2",
      "byteOffset": 24,
      "count": 312
    },
    {
      "bufferView": 5,
      "componentType": 5123,
      "type": "SCALAR",
      "count": 192
    },
    {
      "bufferView": 6,
      "componentType": 5126,
      "type": "VEC3",
      "count": 128,
      "min": [10, 0, 1],
      "max": [13, 1, 5]
    },
    {
      "bufferView": 6,
      "componentType": 5126,
      "type": "VEC3",
      "byteOffset": 12,
      "count": 128
    },
    {
      "bufferView": 6,
      "componentType": 5126,
      "type": "VEC2",
      "byteOffset": 24,
      "count": 128
    },
    {
      "bufferView": 7,
      "componentType": 5123,
      "type": "SCALAR",
      "count": 234
    },
    {
      "bufferView": 8,
      "componentType": 5126,
      "type": "VEC3",
      "count": 156,
      "min": [11, 15, 0],
      "max": [16, 16, 4]
    },
    {
      "bufferView": 8,
      "componentType": 5126,
      "type": "VEC3",
      "byteOffset": 12,
      "count": 156
    },
    {
      "bufferView": 8,
      "componentType": 5126,
      "type": "VEC2",
      "byteOffset": 24,
      "count": 156
    },
    {
      "bufferView": 9,
      "componentType": 5123,
      "type": "SCALAR",
      "count": 366
    },
    {
      "bufferView": 10,
      "componentType": 5126,
      "type": "VEC3",
      "count": 244,
      "min": [11, 0, 0],
      "max": [16, 2, 4]
    },
    {
      "bufferView": 10,
      "componentType": 5126,
      "type": "VEC3",
      "byteOffset": 12,
      "count": 244
    },
    {
      "bufferView": 10,
      "componentType": 5126,
      "type": "VEC2",
      "byteOffset": 24,
      "count": 244
    },
    {
      "bufferView": 11,
      "componentType": 5123,
      "type": "SCALAR",
      "count": 108
    },
    {
      "bufferView": 12,
      "componentType": 5126,
      "type": "VEC3",
      "count": 72,
      "min": [14, 12, 1],
      "max": [15, 15, 4]
    },
    {
      "bufferView": 12,
      "componentType": 5126,
      "type": "VEC3",
      "byteOffset": 12,
      "count": 72
    },
    {
      "bufferView": 12,
      "componentType": 5126,
      "type": "VEC2",
      "byteOffset": 24,
      "count": 72
    },
    {
      "bufferView": 13,
      "componentType": 5123,
      "type": "SCALAR",
      "count": 108
    },
    {
      "bufferView": 14,
      "componentType": 5126,
      "type": "VEC3",
      "count": 72,
      "min": [14, 2, 1],
      "max": [15, 5, 4]
    },
    {
      "bufferView": 14,
      "componentType": 5126,
      "type": "VEC3",
      "byteOffset": 12,
      "count": 72
    },
    {
      "bufferView": 14,
      "componentType": 5126,
      "type": "VEC2",
      "byteOffset": 24,
      "count": 72
    },
    {
      "bufferView": 15,
      "componentType": 5123,
      "type": "SCALAR",
      "count": 108
    },
    {
      "bufferView": 16,
      "componentType": 5126,
      "type": "VEC3",
      "count": 72,
      "min": [13, 12, 1],
      "max": [14, 15, 4]
    },
    {
      "bufferView": 16,
      "componentType": 5126,
      "type": "VEC3",
      "byteOffset": 12,
      "count": 72
    },
    {
      "bufferView": 16,
      "componentType": 5126,
      "type": "VEC2",
      "byteOffset": 24,
      "count": 72
    },
    {
      "bufferView": 17,
      "componentType": 5123,
      "type": "SCALAR",
      "count": 108
    },
    {
      "bufferView": 18,
      "componentType": 5126,
      "type": "VEC3",
      "count": 72,
      "min": [13, 2, 1],
      "max": [14, 5, 4]
    },
    {
      "bufferView": 18,
      "componentType": 5126,
      "type": "VEC3",
      "byteOffset": 12,
      "count": 72
    },
    {
      "bufferView": 18,
      "componentType": 5126,
      "type": "VEC2",
      "byteOffset": 24,
      "count": 72
    }
  ],
  "asset": {
    "generator": "goxel",
    "version": "2.0"
  },
  "bufferViews": [
    {
      "buffer": 0,
      "byteLength": 128
    },
    {
      "buffer": 2,
      "byteLength": 312
    },
    {
      "buffer": 1,
      "byteLength": 3328,
      "byteStride": 32
    },
    {
      "buffer": 4,
      "byteLength": 936
    },
    {
      "buffer": 3,
      "byteLength": 9984,
      "byteStride": 32
    },
    {
      "buffer": 6,
      "byteLength": 384
    },
    {
      "buffer": 5,
      "byteLength": 4096,
      "byteStride": 32
    },
    {
      "buffer": 8,
      "byteLength": 468
    },
    {
      "buffer": 7,
      "byteLength": 4992,
      "byteStride": 32
    },
    {
      "buffer": 10,
      "byteLength": 732
    },
    {
      "buffer": 9,
      "byteLength": 7808,
      "byteStride": 32
    },
    {
      "buffer": 12,
      "byteLength": 216
    },
    {
      "buffer": 11,
      "byteLength": 2304,
      "byteStride": 32
    },
    {
      "buffer": 14,
      "byteLength": 216
    },
    {
      "buffer": 13,
      "byteLength": 2304,
      "byteStride": 32
    },
    {
      "buffer": 16,
      "byteLength": 216
    },
    {
      "buffer": 15,
      "byteLength": 2304,
      "byteStride": 32
    },
    {
      "buffer": 18,
      "byteLength": 216
    },
    {
      "buffer": 17,
      "byteLength": 2304,
      "byteStride": 32
    }
  ],
  "buffers": [
    {
      "uri": "data:application/octet-stream;base64,",
      "byteLength": 128
    },
    {
      "uri": "data:application/octet-stream;base64,",
      "byteLength": 3328
    },
    {
      "uri": "data:application/octet-stream;base64,",
      "byteLength": 312
    },
    {
      "uri": "data:application/octet-stream;base64,",
      "byteLength": 9984
    },
    {
      "uri": "data:application/octet-stream;base64,",
      "byteLength": 936
    },
    {
      "uri": "data:application/octet-stream;base64,",
      "byteLength": 4096
    },
    {
      "uri": "data:application/octet-stream;base64,",
      "byteLength": 384
    },
    {
      "uri": "data:application/octet-stream;base64,",
      "byteLength": 4992
    },
    {
      "uri": "data:application/octet-stream;base64,",
      "byteLength": 468
    },
    {
      "uri": "data:application/octet-stream;base64,",
      "byteLength": 7808
    },
    {
      "uri": "data:application/octet-stream;base64,",
      "byteLength": 732
    },
    {
      "uri": "data:application/octet-stream;base64,",
      "byteLength": 2304
    },
    {
      "uri": "data:application/octet-stream;base64,",
      "byteLength": 216
    },
    {
      "uri": "data:application/octet-stream;base64,",
      "byteLength": 2304
    },
    {
      "uri": "data:application/octet-stream;base64,",
      "byteLength": 216
    },
    {
      "uri": "data:application/octet-stream;base64,",
      "byteLength": 2304
    },
    {
      "uri": "data:application/octet-stream;base64,",
      "byteLength": 216
    },
    {
      "uri": "data:application/octet-stream;base64,",
      "byteLength": 2304
    },
    {
      "uri": "data:application/octet-stream;base64,",
      "byteLength": 216
    }
  ],
  "images": [
    {
      "bufferView": 0,
      "mimeType": "image/png"
    }
  ],
  "meshes": [
    {
      "primitives": [
        {
          "indices": 0,
          "material": 1,
          "attributes": {
            "POSITION": 1,
            "NORMAL": 2,
            "TEXCOORD_0": 3
          }
        }
      ]
    },
    {
      "primitives": [
        {
          "indices": 4,
          "material": 1,
          "attributes": {
            "POSITION": 5,
            "NORMAL": 6,
            "TEXCOORD_0": 7
          }
        }
      ]
    },
    {
      "primitives": [
        {
          "indices": 8,
          "material": 1,
          "attributes": {
            "POSITION": 9,
            "NORMAL": 10,
            "TEXCOORD_0": 11
          }
        }
      ]
    },
    {
      "primitives": [
        {
          "indices": 12,
          "material": 2,
          "attributes": {
            "POSITION": 13,
            "NORMAL": 14,
            "TEXCOORD_0": 15
          }
        }
      ]
    },
    {
      "primitives": [
        {
          "indices": 16,
          "material": 2,
          "attributes": {
            "POSITION": 17,
            "NORMAL": 18,
            "TEXCOORD_0": 19
          }
        }
      ]
    },
    {
      "primitives": [
        {
          "indices": 20,
          "material": 3,
          "attributes": {
            "POSITION": 21,
            "NORMAL": 22,
            "TEXCOORD_0": 23
          }
        }
      ]
    },
    {
      "primitives": [
        {
          "indices": 24,
          "material": 3,
          "attributes": {
            "POSITION": 25,
            "NORMAL": 26,
            "TEXCOORD_0": 27
          }
        }
      ]
    },
    {
      "primitives": [
        {
          "indices": 28,
          "material": 4,
          "attributes": {
            "POSITION": 29,
            "NORMAL": 30,
            "TEXCOORD_0": 31
          }
        }
      ]
    },
    {
      "primitives": [
        {
          "indices": 32,
          "material": 4,
          "attributes": {
            "POSITION": 33,
            "NORMAL": 34,
            "TEXCOORD_0": 35
          }
        }
      ]
    }
  ],
  "materials": [
    {
      "name": "Material.1",
      "pbrMetallicRoughness": {
        "baseColorTexture": {
          "index": 0
        },
        "metallicFactor": 0.200000003,
        "roughnessFactor": 0.5
      }
    },
    {
      "name": "canon",
      "pbrMetallicRoughness": {
        "baseColorTexture": {
          "index": 0
        },
        "metallicFactor": 0.200000003,
        "roughnessFactor": 0.5,
        "baseColorFactor": [0,333333343, 0,333333343, 0,333333343, 1]
      }
    },
    {
      "name": "principal",
      "pbrMetallicRoughness": {
        "baseColorTexture": {
          "index": 0
        },
        "metallicFactor": 0.200000003,
        "roughnessFactor": 0.5,
        "baseColorFactor": [0, 0, 0,466666669, 1]
      }
    },
    {
      "name": "bullet",
      "pbrMetallicRoughness": {
        "baseColorTexture": {
          "index": 0
        },
        "metallicFactor": 0.200000003,
        "roughnessFactor": 0.5,
        "baseColorFactor": [1, 0,800000012, 0, 1]
      }
    },
    {
      "name": "bullet2",
      "pbrMetallicRoughness": {
        "baseColorTexture": {
          "index": 0
        },
        "metallicFactor": 0.200000003,
        "roughnessFactor": 0.5,
        "baseColorFactor": [1, 0,600000024, 0, 1]
      }
    }
  ],
  "nodes": [
    {
      "children": [ 4, 7, 10, 13 ],
      "matrix": [1, 0, 0, 0, 0, 0, -1, 0, 0, 1, 0, 0, 0, 0, 0, 1]
    },
    {
      "mesh": 0,
      "translation": [0, -16, 0]
    },
    {
      "mesh": 1,
      "translation": [0, 0, 0]
    },
    {
      "mesh": 2,
      "translation": [-16, 0, 0]
    },
    {
      "children": [ 1, 2, 3 ]
    },
    {
      "mesh": 3,
      "translation": [-16, -16, 0]
    },
    {
      "mesh": 4,
      "translation": [-16, 0, 0]
    },
    {
      "children": [ 5, 6 ]
    },
    {
      "mesh": 5,
      "translation": [-16, -16, 0]
    },
    {
      "mesh": 6,
      "translation": [-16, 0, 0]
    },
    {
      "children": [ 8, 9 ]
    },
    {
      "mesh": 7,
      "translation": [-16, -16, 0]
    },
    {
      "mesh": 8,
      "translation": [-16, 0, 0]
    },
    {
      "children": [ 11, 12 ]
    }
  ],
  "scenes": [
    {
      "nodes": [ 0 ]
    }
  ],
  "textures": [
    {
      "source": 0
    }
  ]
}
