{
  "accessors": [
    {
      "bufferView": 1,
      "componentType": 5123,
      "type": "SCALAR",
      "count": 468
    },
    {
      "bufferView": 2,
      "componentType": 5126,
      "type": "VEC3",
      "count": 312,
      "min": [13, 0, 0],
      "max": [16, 5, 5]
    },
    {
      "bufferView": 2,
      "componentType": 5126,
      "type": "VEC3",
      "byteOffset": 12,
      "count": 312
    },
    {
      "bufferView": 2,
      "componentType": 5126,
      "type": "VEC2",
      "byteOffset": 24,
      "count": 312
    },
    {
      "bufferView": 3,
      "componentType": 5123,
      "type": "SCALAR",
      "count": 1056
    },
    {
      "bufferView": 4,
      "componentType": 5126,
      "type": "VEC3",
      "count": 704,
      "min": [0, 0, 0],
      "max": [6, 5, 5]
    },
    {
      "bufferView": 4,
      "componentType": 5126,
      "type": "VEC3",
      "byteOffset": 12,
      "count": 704
    },
    {
      "bufferView": 4,
      "componentType": 5126,
      "type": "VEC2",
      "byteOffset": 24,
      "count": 704
    },
    {
      "bufferView": 5,
      "componentType": 5123,
      "type": "SCALAR",
      "count": 516
    },
    {
      "bufferView": 6,
      "componentType": 5126,
      "type": "VEC3",
      "count": 344,
      "min": [13, 0, 0],
      "max": [16, 5, 5]
    },
    {
      "bufferView": 6,
      "componentType": 5126,
      "type": "VEC3",
      "byteOffset": 12,
      "count": 344
    },
    {
      "bufferView": 6,
      "componentType": 5126,
      "type": "VEC2",
      "byteOffset": 24,
      "count": 344
    },
    {
      "bufferView": 7,
      "componentType": 5123,
      "type": "SCALAR",
      "count": 72
    },
    {
      "bufferView": 8,
      "componentType": 5126,
      "type": "VEC3",
      "count": 48,
      "min": [0, 5, 2],
      "max": [3, 6, 3]
    },
    {
      "bufferView": 8,
      "componentType": 5126,
      "type": "VEC3",
      "byteOffset": 12,
      "count": 48
    },
    {
      "bufferView": 8,
      "componentType": 5126,
      "type": "VEC2",
      "byteOffset": 24,
      "count": 48
    },
    {
      "bufferView": 9,
      "componentType": 5123,
      "type": "SCALAR",
      "count": 72
    },
    {
      "bufferView": 10,
      "componentType": 5126,
      "type": "VEC3",
      "count": 48,
      "min": [0, 15, 2],
      "max": [3, 16, 3]
    },
    {
      "bufferView": 10,
      "componentType": 5126,
      "type": "VEC3",
      "byteOffset": 12,
      "count": 48
    },
    {
      "bufferView": 10,
      "componentType": 5126,
      "type": "VEC2",
      "byteOffset": 24,
      "count": 48
    },
    {
      "bufferView": 11,
      "componentType": 5123,
      "type": "SCALAR",
      "count": 108
    },
    {
      "bufferView": 12,
      "componentType": 5126,
      "type": "VEC3",
      "count": 72,
      "min": [13, 1, 2],
      "max": [16, 6, 3]
    },
    {
      "bufferView": 12,
      "componentType": 5126,
      "type": "VEC3",
      "byteOffset": 12,
      "count": 72
    },
    {
      "bufferView": 12,
      "componentType": 5126,
      "type": "VEC2",
      "byteOffset": 24,
      "count": 72
    },
    {
      "bufferView": 13,
      "componentType": 5123,
      "type": "SCALAR",
      "count": 36
    },
    {
      "bufferView": 14,
      "componentType": 5126,
      "type": "VEC3",
      "count": 24,
      "min": [1, 5, 2],
      "max": [2, 6, 3]
    },
    {
      "bufferView": 14,
      "componentType": 5126,
      "type": "VEC3",
      "byteOffset": 12,
      "count": 24
    },
    {
      "bufferView": 14,
      "componentType": 5126,
      "type": "VEC2",
      "byteOffset": 24,
      "count": 24
    },
    {
      "bufferView": 15,
      "componentType": 5123,
      "type": "SCALAR",
      "count": 36
    },
    {
      "bufferView": 16,
      "componentType": 5126,
      "type": "VEC3",
      "count": 24,
      "min": [1, 15, 2],
      "max": [2, 16, 3]
    },
    {
      "bufferView": 16,
      "componentType": 5126,
      "type": "VEC3",
      "byteOffset": 12,
      "count": 24
    },
    {
      "bufferView": 16,
      "componentType": 5126,
      "type": "VEC2",
      "byteOffset": 24,
      "count": 24
    },
    {
      "bufferView": 17,
      "componentType": 5123,
      "type": "SCALAR",
      "count": 36
    },
    {
      "bufferView": 18,
      "componentType": 5126,
      "type": "VEC3",
      "count": 24,
      "min": [15, 15, 2],
      "max": [16, 16, 3]
    },
    {
      "bufferView": 18,
      "componentType": 5126,
      "type": "VEC3",
      "byteOffset": 12,
      "count": 24
    },
    {
      "bufferView": 18,
      "componentType": 5126,
      "type": "VEC2",
      "byteOffset": 24,
      "count": 24
    },
    {
      "bufferView": 19,
      "componentType": 5123,
      "type": "SCALAR",
      "count": 132
    },
    {
      "bufferView": 20,
      "componentType": 5126,
      "type": "VEC3",
      "count": 88,
      "min": [15, 1, 1],
      "max": [16, 4, 4]
    },
    {
      "bufferView": 20,
      "componentType": 5126,
      "type": "VEC3",
      "byteOffset": 12,
      "count": 88
    },
    {
      "bufferView": 20,
      "componentType": 5126,
      "type": "VEC2",
      "byteOffset": 24,
      "count": 88
    },
    {
      "bufferView": 21,
      "componentType": 5123,
      "type": "SCALAR",
      "count": 264
    },
    {
      "bufferView": 22,
      "componentType": 5126,
      "type": "VEC3",
      "count": 176,
      "min": [0, 0, 1],
      "max": [2, 5, 4]
    },
    {
      "bufferView": 22,
      "componentType": 5126,
      "type": "VEC3",
      "byteOffset": 12,
      "count": 176
    },
    {
      "bufferView": 22,
      "componentType": 5126,
      "type": "VEC2",
      "byteOffset": 24,
      "count": 176
    }
  ],
  "asset": {
    "generator": "goxel",
    "version": "2.0"
  },
  "bufferViews": [
    {
      "buffer": 0,
      "byteLength": 99
    },
    {
      "buffer": 2,
      "byteLength": 936
    },
    {
      "buffer": 1,
      "byteLength": 9984,
      "byteStride": 32
    },
    {
      "buffer": 4,
      "byteLength": 2112
    },
    {
      "buffer": 3,
      "byteLength": 22528,
      "byteStride": 32
    },
    {
      "buffer": 6,
      "byteLength": 1032
    },
    {
      "buffer": 5,
      "byteLength": 11008,
      "byteStride": 32
    },
    {
      "buffer": 8,
      "byteLength": 144
    },
    {
      "buffer": 7,
      "byteLength": 1536,
      "byteStride": 32
    },
    {
      "buffer": 10,
      "byteLength": 144
    },
    {
      "buffer": 9,
      "byteLength": 1536,
      "byteStride": 32
    },
    {
      "buffer": 12,
      "byteLength": 216
    },
    {
      "buffer": 11,
      "byteLength": 2304,
      "byteStride": 32
    },
    {
      "buffer": 14,
      "byteLength": 72
    },
    {
      "buffer": 13,
      "byteLength": 768,
      "byteStride": 32
    },
    {
      "buffer": 16,
      "byteLength": 72
    },
    {
      "buffer": 15,
      "byteLength": 768,
      "byteStride": 32
    },
    {
      "buffer": 18,
      "byteLength": 72
    },
    {
      "buffer": 17,
      "byteLength": 768,
      "byteStride": 32
    },
    {
      "buffer": 20,
      "byteLength": 264
    },
    {
      "buffer": 19,
      "byteLength": 2816,
      "byteStride": 32
    },
    {
      "buffer": 22,
      "byteLength": 528
    },
    {
      "buffer": 21,
      "byteLength": 5632,
      "byteStride": 32
    }
  ],
  "buffers": [
    {
      "uri": "data:application/octet-stream;base64,",
      "byteLength": 99
    },
    {
      "uri": "data:application/octet-stream;base64,",
      "byteLength": 9984
    },
    {
      "uri": "data:application/octet-stream;base64,",
      "byteLength": 936
    },
    {
      "uri": "data:application/octet-stream;base64,",
      "byteLength": 22528
    },
    {
      "uri": "data:application/octet-stream;base64,",
      "byteLength": 2112
    },
    {
      "uri": "data:application/octet-stream;base64,",
      "byteLength": 11008
    },
    {
      "uri": "data:application/octet-stream;base64,",
      "byteLength": 1032
    },
    {
      "uri": "data:application/octet-stream;base64,",
      "byteLength": 1536
    },
    {
      "uri": "data:application/octet-stream;base64,",
      "byteLength": 144
    },
    {
      "uri": "data:application/octet-stream;base64,",
      "byteLength": 1536
    },
    {
      "uri": "data:application/octet-stream;base64,",
      "byteLength": 144
    },
    {
      "uri": "data:application/octet-stream;base64,",
      "byteLength": 2304
    },
    {
      "uri": "data:application/octet-stream;base64,",
      "byteLength": 216
    },
    {
      "uri": "data:application/octet-stream;base64,",
      "byteLength": 768
    },
    {
      "uri": "data:application/octet-stream;base64,",
      "byteLength": 72
    },
    {
      "uri": "data:application/octet-stream;base64,",
      "byteLength": 768
    },
    {
      "uri": "data:application/octet-stream;base64,",
      "byteLength": 72
    },
    {
      "uri": "data:application/octet-stream;base64,",
      "byteLength": 768
    },
    {
      "uri": "data:application/octet-stream;base64,",
      "byteLength": 72
    },
    {
      "uri": "data:application/octet-stream;base64,",
      "byteLength": 2816
    },
    {
      "uri": "data:application/octet-stream;base64,",
      "byteLength": 264
    },
    {
      "uri": "data:application/octet-stream;base64,",
      "byteLength": 5632
    },
    {
      "uri": "data:application/octet-stream;base64,",
      "byteLength": 528
    }
  ],
  "images": [
    {
      "bufferView": 0,
      "mimeType": "image/png"
    }
  ],
  "meshes": [
    {
      "primitives": [
        {
          "indices": 0,
          "material": 1,
          "attributes": {
            "POSITION": 1,
            "NORMAL": 2,
            "TEXCOORD_0": 3
          }
        }
      ]
    },
    {
      "primitives": [
        {
          "indices": 4,
          "material": 1,
          "attributes": {
            "POSITION": 5,
            "NORMAL": 6,
            "TEXCOORD_0": 7
          }
        }
      ]
    },
    {
      "primitives": [
        {
          "indices": 8,
          "material": 0,
          "attributes": {
            "POSITION": 9,
            "NORMAL": 10,
            "TEXCOORD_0": 11
          }
        }
      ]
    },
    {
      "primitives": [
        {
          "indices": 12,
          "material": 0,
          "attributes": {
            "POSITION": 13,
            "NORMAL": 14,
            "TEXCOORD_0": 15
          }
        }
      ]
    },
    {
      "primitives": [
        {
          "indices": 16,
          "material": 0,
          "attributes": {
            "POSITION": 17,
            "NORMAL": 18,
            "TEXCOORD_0": 19
          }
        }
      ]
    },
    {
      "primitives": [
        {
          "indices": 20,
          "material": 2,
          "attributes": {
            "POSITION": 21,
            "NORMAL": 22,
            "TEXCOORD_0": 23
          }
        }
      ]
    },
    {
      "primitives": [
        {
          "indices": 24,
          "material": 2,
          "attributes": {
            "POSITION": 25,
            "NORMAL": 26,
            "TEXCOORD_0": 27
          }
        }
      ]
    },
    {
      "primitives": [
        {
          "indices": 28,
          "material": 2,
          "attributes": {
            "POSITION": 29,
            "NORMAL": 30,
            "TEXCOORD_0": 31
          }
        }
      ]
    },
    {
      "primitives": [
        {
          "indices": 32,
          "material": 2,
          "attributes": {
            "POSITION": 33,
            "NORMAL": 34,
            "TEXCOORD_0": 35
          }
        }
      ]
    },
    {
      "primitives": [
        {
          "indices": 36,
          "material": 3,
          "attributes": {
            "POSITION": 37,
            "NORMAL": 38,
            "TEXCOORD_0": 39
          }
        }
      ]
    },
    {
      "primitives": [
        {
          "indices": 40,
          "material": 3,
          "attributes": {
            "POSITION": 41,
            "NORMAL": 42,
            "TEXCOORD_0": 43
          }
        }
      ]
    }
  ],
  "materials": [
    {
      "name": "secondary",
      "pbrMetallicRoughness": {
        "baseColorTexture": {
          "index": 0
        },
        "metallicFactor": 0.200000003,
        "roughnessFactor": 0.5,
        "baseColorFactor": [0.372549027, 0.36470589, 0.380392164, 1]
      }
    },
    {
      "name": "primary",
      "pbrMetallicRoughness": {
        "baseColorTexture": {
          "index": 0
        },
        "roughnessFactor": 0.700000048
      }
    },
    {
      "name": "detail",
      "pbrMetallicRoughness": {
        "baseColorTexture": {
          "index": 0
        },
        "metallicFactor": 0.200000003,
        "roughnessFactor": 0.5,
        "baseColorFactor": [0.345098048, 0.337254912, 0.349019617, 1]
      }
    },
    {
      "name": "energy",
      "pbrMetallicRoughness": {
        "baseColorTexture": {
          "index": 0
        },
        "metallicFactor": 0.200000003,
        "roughnessFactor": 0.5,
        "baseColorFactor": [0.0784313753, 0.576470613, 0.843137264, 1]
      },
      "emissiveFactor": [1.16871857e-09, 8.59008153e-09, 1.25637243e-08]
    }
  ],
  "nodes": [
    {
      "children": [ 3, 7, 12, 15 ],
      "matrix": [1, 0, 0, 0, 0, 0, -1, 0, 0, 1, 0, 0, 0, 0, 0, 1]
    },
    {
      "mesh": 0,
      "translation": [-16, 0, 0]
    },
    {
      "mesh": 1,
      "translation": [0, 0, 0]
    },
    {
      "children": [ 1, 2 ]
    },
    {
      "mesh": 2,
      "translation": [-16, 0, 0]
    },
    {
      "mesh": 3,
      "translation": [0, 0, 0]
    },
    {
      "mesh": 4,
      "translation": [0, -16, 0]
    },
    {
      "children": [ 4, 5, 6 ]
    },
    {
      "mesh": 5,
      "translation": [-16, 0, 0]
    },
    {
      "mesh": 6,
      "translation": [0, 0, 0]
    },
    {
      "mesh": 7,
      "translation": [0, -16, 0]
    },
    {
      "mesh": 8,
      "translation": [-16, -16, 0]
    },
    {
      "children": [ 8, 9, 10, 11 ]
    },
    {
      "mesh": 9,
      "translation": [-16, 0, 0]
    },
    {
      "mesh": 10,
      "translation": [0, 0, 0]
    },
    {
      "children": [ 13, 14 ]
    }
  ],
  "scenes": [
    {
      "nodes": [ 0 ]
    }
  ],
  "textures": [
    {
      "source": 0
    }
  ]
}
